HIERARCHY
ROOT Hips
{
	OFFSET 0.000000 100.481300 0.000000
	CHANNELS 6 Xposition Yposition Zposition Xrotation Yrotation Zrotation
	JOINT Spine
	{
		OFFSET -0.279200 12.230698 -2.892100
		CHANNELS 3 Xrotation Yrotation Zrotation
		JOINT Spine1
		{
			OFFSET -0.325700 14.269203 -3.374200
			CHANNELS 3 Xrotation Yrotation Zrotation
			JOINT Spine2
			{
				OFFSET -0.372300 16.307602 -0.352600
				CHANNELS 3 Xrotation Yrotation Zrotation
				JOINT Neck
				{
					OFFSET -0.418800 17.814194 8.416900
					CHANNELS 3 Xrotation Yrotation Zrotation
					JOINT Head
					{
						OFFSET 0.000000 7.031097 3.806800
						CHANNELS 3 Xrotation Yrotation Zrotation
						JOINT HeadTop_End
						{
							OFFSET 0.000000 24.646606 12.978600
							CHANNELS 3 Xrotation Yrotation Zrotation
							End Site
							{
								OFFSET 0.000000 27.854965 0.000000
							}
						}
					}
				}
				JOINT LeftShoulder
				{
					OFFSET 16.952999 14.495407 -7.737500
					CHANNELS 3 Xrotation Yrotation Zrotation
					JOINT LeftArm
					{
						OFFSET 9.308998 -2.777710 0.208600
						CHANNELS 3 Xrotation Yrotation Zrotation
						JOINT LeftForeArm
						{
							OFFSET 29.972298 0.000000 0.000000
							CHANNELS 3 Xrotation Yrotation Zrotation
							JOINT LeftHand
							{
								OFFSET 26.026505 0.000000 0.000000
								CHANNELS 3 Xrotation Yrotation Zrotation
								JOINT LeftHandThumb1
								{
									OFFSET 12.240501 -7.147949 9.207150
									CHANNELS 3 Xrotation Yrotation Zrotation
									JOINT LeftHandThumb2
									{
										OFFSET 4.138618 -2.389435 2.389433
										CHANNELS 3 Xrotation Yrotation Zrotation
										JOINT LeftHandThumb3
										{
											OFFSET 2.726913 -1.574387 1.574386
											CHANNELS 3 Xrotation Yrotation Zrotation
											JOINT LeftHandThumb4
											{
												OFFSET 3.941010 -2.275345 2.275342
												CHANNELS 3 Xrotation Yrotation Zrotation
												End Site
												{
													OFFSET -0.005798 5.087799 0.009903
												}
											}
										}
									}
								}
								JOINT LeftHandIndex1
								{
									OFFSET 24.424698 -1.985611 5.953459
									CHANNELS 3 Xrotation Yrotation Zrotation
									JOINT LeftHandIndex2
									{
										OFFSET 6.426697 0.000000 0.000000
										CHANNELS 3 Xrotation Yrotation Zrotation
										JOINT LeftHandIndex3
										{
											OFFSET 5.337898 0.000000 0.000000
											CHANNELS 3 Xrotation Yrotation Zrotation
											JOINT LeftHandIndex4
											{
												OFFSET 4.409401 0.000000 0.000000
												CHANNELS 3 Xrotation Yrotation Zrotation
												End Site
												{
													OFFSET 0.000000 4.409363 0.014373
												}
											}
										}
									}
								}
								JOINT LeftHandMiddle1
								{
									OFFSET 23.810104 0.000000 0.000000
									CHANNELS 3 Xrotation Yrotation Zrotation
									JOINT LeftHandMiddle2
									{
										OFFSET 7.176498 0.000000 0.000000
										CHANNELS 3 Xrotation Yrotation Zrotation
										JOINT LeftHandMiddle3
										{
											OFFSET 6.774902 0.000000 0.000000
											CHANNELS 3 Xrotation Yrotation Zrotation
											JOINT LeftHandMiddle4
											{
												OFFSET 5.403328 0.000000 0.000000
												CHANNELS 3 Xrotation Yrotation Zrotation
												End Site
												{
													OFFSET -0.027702 5.403244 0.017414
												}
											}
										}
									}
								}
								JOINT LeftHandRing1
								{
									OFFSET 22.908401 -0.839279 -6.020567
									CHANNELS 3 Xrotation Yrotation Zrotation
									JOINT LeftHandRing2
									{
										OFFSET 6.337502 0.000000 0.000000
										CHANNELS 3 Xrotation Yrotation Zrotation
										JOINT LeftHandRing3
										{
											OFFSET 5.779297 0.000000 0.000000
											CHANNELS 3 Xrotation Yrotation Zrotation
											JOINT LeftHandRing4
											{
												OFFSET 4.965698 0.000000 0.000000
												CHANNELS 3 Xrotation Yrotation Zrotation
												End Site
												{
													OFFSET 0.000000 4.965668 0.016186
												}
											}
										}
									}
								}
								JOINT LeftHandPinky1
								{
									OFFSET 20.037003 -1.530319 -10.950146
									CHANNELS 3 Xrotation Yrotation Zrotation
									JOINT LeftHandPinky2
									{
										OFFSET 5.254700 0.000000 0.000000
										CHANNELS 3 Xrotation Yrotation Zrotation
										JOINT LeftHandPinky3
										{
											OFFSET 4.810204 0.000000 0.000000
											CHANNELS 3 Xrotation Yrotation Zrotation
											JOINT LeftHandPinky4
											{
												OFFSET 3.647202 0.000000 0.000000
												CHANNELS 3 Xrotation Yrotation Zrotation
												End Site
												{
													OFFSET 0.000000 3.647186 0.011889
												}
											}
										}
									}
								}
							}
						}
					}
				}
				JOINT RightShoulder
				{
					OFFSET -15.141001 14.495407 -7.737500
					CHANNELS 3 Xrotation Yrotation Zrotation
					JOINT RightArm
					{
						OFFSET -9.308998 -2.777710 0.208500
						CHANNELS 3 Xrotation Yrotation Zrotation
						JOINT RightForeArm
						{
							OFFSET -29.972300 0.000000 0.000000
							CHANNELS 3 Xrotation Yrotation Zrotation
							JOINT RightHand
							{
								OFFSET -26.026505 0.000000 0.000000
								CHANNELS 3 Xrotation Yrotation Zrotation
								JOINT RightHandThumb1
								{
									OFFSET -12.240601 -7.148026 9.207092
									CHANNELS 3 Xrotation Yrotation Zrotation
									JOINT RightHandThumb2
									{
										OFFSET -4.138618 -2.389435 2.389433
										CHANNELS 3 Xrotation Yrotation Zrotation
										JOINT RightHandThumb3
										{
											OFFSET -2.726974 -1.574417 1.574421
											CHANNELS 3 Xrotation Yrotation Zrotation
											JOINT RightHandThumb4
											{
												OFFSET -3.941010 -2.275345 2.275343
												CHANNELS 3 Xrotation Yrotation Zrotation
												End Site
												{
													OFFSET 0.005814 5.087799 0.009927
												}
											}
										}
									}
								}
								JOINT RightHandIndex1
								{
									OFFSET -24.424698 -1.985657 5.953444
									CHANNELS 3 Xrotation Yrotation Zrotation
									JOINT RightHandIndex2
									{
										OFFSET -6.426697 0.000000 0.000000
										CHANNELS 3 Xrotation Yrotation Zrotation
										JOINT RightHandIndex3
										{
											OFFSET -5.337898 0.000000 0.000000
											CHANNELS 3 Xrotation Yrotation Zrotation
											JOINT RightHandIndex4
											{
												OFFSET -4.409401 0.000000 0.000000
												CHANNELS 3 Xrotation Yrotation Zrotation
												End Site
												{
													OFFSET 0.000000 4.409363 0.014408
												}
											}
										}
									}
								}
								JOINT RightHandMiddle1
								{
									OFFSET -23.810097 0.000000 0.000000
									CHANNELS 3 Xrotation Yrotation Zrotation
									JOINT RightHandMiddle2
									{
										OFFSET -7.176498 0.000000 0.000000
										CHANNELS 3 Xrotation Yrotation Zrotation
										JOINT RightHandMiddle3
										{
											OFFSET -6.774902 0.000000 0.000000
											CHANNELS 3 Xrotation Yrotation Zrotation
											JOINT RightHandMiddle4
											{
												OFFSET -5.403328 0.000000 0.000000
												CHANNELS 3 Xrotation Yrotation Zrotation
												End Site
												{
													OFFSET 0.027702 5.403244 0.017457
												}
											}
										}
									}
								}
								JOINT RightHandRing1
								{
									OFFSET -22.908302 -0.839325 -6.020576
									CHANNELS 3 Xrotation Yrotation Zrotation
									JOINT RightHandRing2
									{
										OFFSET -6.337502 0.000000 0.000000
										CHANNELS 3 Xrotation Yrotation Zrotation
										JOINT RightHandRing3
										{
											OFFSET -5.779297 0.000000 0.000000
											CHANNELS 3 Xrotation Yrotation Zrotation
											JOINT RightHandRing4
											{
												OFFSET -4.965698 0.000000 0.000000
												CHANNELS 3 Xrotation Yrotation Zrotation
												End Site
												{
													OFFSET 0.000000 4.965668 0.016226
												}
											}
										}
									}
								}
								JOINT RightHandPinky1
								{
									OFFSET -20.037003 -1.530334 -10.950259
									CHANNELS 3 Xrotation Yrotation Zrotation
									JOINT RightHandPinky2
									{
										OFFSET -5.254700 0.000000 0.000000
										CHANNELS 3 Xrotation Yrotation Zrotation
										JOINT RightHandPinky3
										{
											OFFSET -4.810204 0.000000 0.000000
											CHANNELS 3 Xrotation Yrotation Zrotation
											JOINT RightHandPinky4
											{
												OFFSET -3.647202 0.000000 0.000000
												CHANNELS 3 Xrotation Yrotation Zrotation
												End Site
												{
													OFFSET 0.000000 3.647186 0.011917
												}
											}
										}
									}
								}
							}
						}
					}
				}
			}
		}
	}
	JOINT LeftUpLeg
	{
		OFFSET 15.427100 -6.655098 0.678600
		CHANNELS 3 Xrotation Yrotation Zrotation
		JOINT LeftLeg
		{
			OFFSET 4.081073 -39.591068 13.024000
			CHANNELS 3 Xrotation Yrotation Zrotation
			JOINT LeftFoot
			{
				OFFSET -4.081074 -37.707932 -15.979700
				CHANNELS 3 Xrotation Yrotation Zrotation
				JOINT LeftToeBase
				{
					OFFSET 5.346399 -15.068900 20.645000
					CHANNELS 3 Xrotation Yrotation Zrotation
					JOINT LeftToe_End
					{
						OFFSET 2.754700 0.931300 11.300900
						CHANNELS 3 Xrotation Yrotation Zrotation
						End Site
						{
							OFFSET 0.000000 11.669021 0.000000
						}
					}
				}
			}
		}
	}
	JOINT RightUpLeg
	{
		OFFSET -15.569500 -6.655098 0.678600
		CHANNELS 3 Xrotation Yrotation Zrotation
		JOINT RightLeg
		{
			OFFSET -4.081825 -39.591045 13.023800
			CHANNELS 3 Xrotation Yrotation Zrotation
			JOINT RightFoot
			{
				OFFSET 4.081824 -37.707954 -15.979600
				CHANNELS 3 Xrotation Yrotation Zrotation
				JOINT RightToeBase
				{
					OFFSET -5.346400 -15.068900 20.645000
					CHANNELS 3 Xrotation Yrotation Zrotation
					JOINT RightToe_End
					{
						OFFSET -2.754700 0.931300 11.300900
						CHANNELS 3 Xrotation Yrotation Zrotation
						End Site
						{
							OFFSET 0.000000 11.669021 0.000000
						}
					}
				}
			}
		}
	}
}
MOTION
Frames: 4
Frame Time: 0.033333
6.809980 78.114517 -7.424481 -3.665964 -47.102009 3.827749 11.808061 1.184704 -2.603077 17.803586 0.613526 -5.353154 17.813642 0.594791 -5.381442 11.788655 1.109291 -0.434569 -0.187527 27.915137 -7.884011 0.000000 -0.000000 -0.000000 -0.195506 -6.978829 2.278485 -21.173938 7.941910 -50.695870 0.000078 -100.372874 0.000095 -16.939863 13.126597 -1.083684 -6.141219 -11.690800 -6.761675 9.914119 42.595505 3.409848 -0.422804 8.108100 27.509145 0.000001 0.000001 -0.000002 0.255317 3.378221 -45.814337 5.654090 5.847760 -88.067455 2.162130 4.544809 -50.866382 0.000001 -0.000000 -0.000002 -0.461468 3.841596 -39.722690 6.450751 5.820363 -95.892851 2.182896 4.561573 -51.127736 0.000001 -0.000003 0.000002 0.469731 4.966829 -39.799447 8.181042 5.368617 -113.502998 3.200486 5.218115 -63.022968 -0.000000 -0.000002 0.000000 -3.762420 9.063685 -45.253818 5.342531 5.829002 -85.005304 8.716839 5.103333 -119.369181 -0.000002 0.000002 0.000001 9.149020 26.683246 7.018178 -45.026909 37.399794 44.499109 0.000147 103.016622 -0.000149 -27.690193 18.835440 13.872739 -7.341099 13.749657 7.412320 9.855801 -44.489100 -3.903258 -0.115781 -14.513090 -28.973871 0.000001 0.000000 0.000000 -0.124375 -2.384791 45.108861 4.500587 -4.654537 88.071171 1.723224 -3.618367 50.920129 0.000001 -0.000001 -0.000001 -0.761624 -2.932909 39.031065 5.133890 -4.632757 95.881663 1.739748 -3.631699 51.181381 0.000001 -0.000003 -0.000001 0.154760 -4.068819 39.122661 6.509727 -4.273598 113.462891 2.549583 -4.153923 63.067337 0.000001 0.000001 0.000001 -4.198872 -8.025512 44.637766 4.252920 -4.639633 85.014818 6.935967 -4.062624 119.322298 -0.000001 0.000000 0.000000 -33.002357 5.203960 13.236192 43.479844 -2.529485 5.959612 -9.717307 -7.399566 -19.898440 -2.305731 0.000010 -0.000002 -0.000000 0.000003 0.000000 -25.977638 -5.926299 -34.052827 52.134639 2.326232 -1.750075 -18.083153 -14.048037 17.264377 -1.970529 0.000002 0.000000 -0.000000 0.000000 -0.000000 
5.997445 78.608566 -7.200902 -4.376267 -46.800060 3.613540 11.375277 1.626221 -2.364072 16.832443 0.897931 -4.923247 16.841959 0.878729 -4.945334 10.747374 1.588501 -0.389883 -0.113755 27.767697 -8.844998 -0.000001 -0.000001 -0.000001 -0.093362 -5.217910 1.828778 -23.874472 8.889262 -50.588998 -0.000060 -103.670947 -0.000073 -15.336469 11.558892 -2.944986 -6.141218 -11.690799 -6.761679 9.914126 42.595508 3.409843 -0.422806 8.108097 27.509150 -0.000002 -0.000001 -0.000000 0.255318 3.378219 -45.814341 5.654090 5.847758 -88.067455 2.162136 4.544810 -50.866382 -0.000000 0.000003 0.000002 -0.461468 3.841594 -39.722693 6.450749 5.820366 -95.892851 2.182892 4.561573 -51.127736 -0.000000 -0.000002 0.000004 0.469729 4.966828 -39.799451 8.181042 5.368620 -113.502998 3.200492 5.218116 -63.022975 -0.000001 -0.000000 -0.000001 -3.762422 9.063684 -45.253821 5.342529 5.829003 -85.005304 8.716838 5.103333 -119.369181 -0.000002 -0.000000 0.000002 8.913401 26.012762 6.795343 -43.933805 36.819668 45.796056 0.000120 103.411578 -0.000150 -27.170472 18.236733 13.785077 -7.341101 13.749662 7.412325 9.855802 -44.489093 -3.903255 -0.115782 -14.513090 -28.973871 -0.000001 -0.000000 0.000001 -0.124377 -2.384783 45.108864 4.500584 -4.654536 88.071171 1.723224 -3.618376 50.920122 -0.000001 -0.000001 0.000001 -0.761627 -2.932906 39.031068 5.133892 -4.632755 95.881663 1.739750 -3.631703 51.181384 0.000001 0.000000 0.000000 0.154758 -4.068811 39.122664 6.509729 -4.273595 113.462891 2.549584 -4.153929 63.067337 0.000001 0.000000 -0.000000 -4.198874 -8.025506 44.637766 4.252920 -4.639634 85.014818 6.935968 -4.062625 119.322298 0.000001 -0.000000 0.000001 -31.409421 5.597528 12.900843 42.423794 -2.837634 6.227008 -9.782501 -7.426545 -20.125579 -2.231652 -0.000011 0.000003 0.000000 0.000001 0.000000 -24.078632 -6.282519 -33.389848 51.505633 2.009574 -2.403888 -18.670778 -15.039995 17.563008 -1.779650 -0.000007 -0.000000 -0.000000 -0.000001 -0.000001 
5.340077 78.915894 -6.915329 -4.543749 -46.434324 3.703442 10.951817 2.004792 -2.169729 15.724984 1.021568 -4.551292 15.733920 1.003340 -4.568721 9.745693 2.215363 -0.291044 -0.403233 27.852251 -9.511935 -0.000001 0.000000 -0.000000 -0.032830 -3.995007 1.222522 -26.729500 9.675818 -49.793332 -0.000007 -106.853679 -0.000004 -12.929981 9.863922 -4.838272 -6.141220 -11.690800 -6.761683 9.914125 42.595508 3.409846 -0.422806 8.108102 27.509150 0.000001 -0.000002 0.000002 0.255318 3.378217 -45.814341 5.654090 5.847755 -88.067455 2.162131 4.544813 -50.866382 0.000000 0.000002 -0.000002 -0.461467 3.841596 -39.722693 6.450752 5.820361 -95.892851 2.182892 4.561572 -51.127733 -0.000001 -0.000002 -0.000000 0.469727 4.966827 -39.799447 8.181041 5.368614 -113.502991 3.200489 5.218114 -63.022968 0.000000 -0.000001 -0.000000 -3.762422 9.063682 -45.253828 5.342529 5.829004 -85.005304 8.716838 5.103333 -119.369181 0.000001 0.000001 -0.000001 8.601236 25.156265 6.602084 -43.151923 36.133559 47.497511 0.000076 103.988585 -0.000077 -26.061767 17.967624 13.070247 -7.341101 13.749661 7.412321 9.855806 -44.489089 -3.903256 -0.115781 -14.513088 -28.973871 -0.000000 0.000000 -0.000000 -0.124376 -2.384783 45.108864 4.500587 -4.654537 88.071164 1.723221 -3.618367 50.920129 0.000001 0.000001 -0.000002 -0.761625 -2.932905 39.031068 5.133892 -4.632756 95.881663 1.739751 -3.631702 51.181384 0.000001 -0.000003 -0.000001 0.154757 -4.068813 39.122664 6.509731 -4.273594 113.462891 2.549583 -4.153923 63.067330 0.000002 -0.000001 -0.000000 -4.198873 -8.025507 44.637772 4.252919 -4.639632 85.014818 6.935967 -4.062627 119.322298 0.000005 0.000000 -0.000000 -30.527708 5.752811 12.636261 41.813991 -3.079615 6.345451 -9.922859 -7.467003 -20.231768 -2.158929 0.000015 -0.000006 -0.000000 -0.000002 -0.000000 -22.845813 -6.737932 -33.239440 51.013556 1.651199 -2.667935 -19.179583 -15.409858 17.871962 -1.595265 -0.000004 0.000003 0.000000 -0.000001 0.000000 
4.794142 79.000832 -6.557518 -4.686784 -46.330146 3.639284 10.626726 2.427265 -2.040458 14.635320 1.143253 -4.219871 14.643429 1.127371 -4.233159 8.732726 2.922572 -0.124228 -0.631851 27.790662 -9.907403 0.000000 -0.000000 -0.000000 -0.023310 -3.213344 0.673084 -29.644052 9.976985 -48.869457 0.000004 -109.532008 0.000001 -10.554438 9.239701 -6.478356 -6.141221 -11.690797 -6.761679 9.914121 42.595501 3.409844 -0.422808 8.108098 27.509147 -0.000003 -0.000001 -0.000000 0.255316 3.378219 -45.814341 5.654091 5.847759 -88.067448 2.162137 4.544810 -50.866379 0.000003 -0.000002 -0.000001 -0.461466 3.841597 -39.722697 6.450746 5.820358 -95.892851 2.182896 4.561573 -51.127733 0.000003 0.000002 -0.000001 0.469727 4.966829 -39.799451 8.181039 5.368620 -113.502998 3.200488 5.218116 -63.022968 0.000001 0.000003 0.000000 -3.762424 9.063685 -45.253825 5.342529 5.829006 -85.005304 8.716834 5.103334 -119.369181 0.000000 0.000002 0.000001 8.322715 24.136111 6.093019 -42.884582 35.526177 49.671472 -0.000045 104.406927 0.000047 -24.773632 18.168874 12.394576 -7.341104 13.749659 7.412323 9.855803 -44.489089 -3.903256 -0.115781 -14.513090 -28.973871 -0.000001 -0.000000 -0.000001 -0.124378 -2.384786 45.108861 4.500591 -4.654537 88.071171 1.723222 -3.618364 50.920133 -0.000001 0.000004 -0.000002 -0.761625 -2.932904 39.031068 5.133892 -4.632756 95.881663 1.739747 -3.631699 51.181384 -0.000000 -0.000003 0.000001 0.154757 -4.068815 39.122664 6.509729 -4.273596 113.462891 2.549583 -4.153921 63.067337 0.000002 -0.000000 0.000001 -4.198875 -8.025510 44.637769 4.252918 -4.639634 85.014818 6.935969 -4.062622 119.322298 -0.000002 0.000000 -0.000001 -29.989926 6.076822 12.802330 41.779833 -3.448859 6.255917 -10.309680 -7.510321 -20.133048 -2.088149 -0.000006 0.000002 0.000000 0.000001 0.000000 -21.939857 -7.063042 -33.156074 50.777788 1.264048 -2.878483 -19.663006 -15.387634 18.271606 -1.417726 -0.000080 -0.000004 -0.000000 0.000001 -0.000000 
